<svg width="483" height="808" viewBox="0 0 483 808" fill="none" xmlns="http://www.w3.org/2000/svg">
<g clip-path="url(#clip0_16_1260)">
<path d="M220.883 373.334L225.944 309.534L231.112 309.944L226.051 373.744L220.883 373.334Z" fill="#E34A43"/>
<path d="M225.883 373.334L230.944 309.534L236.112 309.944L231.051 373.744L225.883 373.334Z" fill="#E34A43"/>
<path d="M211.749 430.971L221.568 367.729L226.69 368.524L216.872 431.766L211.749 430.971Z" fill="#E34A43"/>
<path d="M216.749 430.971L226.568 367.729L231.69 368.524L221.872 431.766L216.749 430.971Z" fill="#E34A43"/>
<path d="M204.475 492.622L212.046 429.071L217.194 429.685L209.622 493.235L204.475 492.622Z" fill="#E34A43"/>
<path d="M209.475 492.622L217.046 429.071L222.194 429.685L214.622 493.235L209.475 492.622Z" fill="#E34A43"/>
<path d="M208.431 555.694L204.714 491.802L209.889 491.5L213.606 555.392L208.431 555.694Z" fill="#E34A43"/>
<path d="M213.431 555.694L209.714 491.802L214.889 491.5L218.606 555.392L213.431 555.694Z" fill="#E34A43"/>
<path d="M215.859 617.68L208.687 554.083L213.838 553.502L221.01 617.099L215.859 617.68Z" fill="#E34A43"/>
<path d="M220.859 617.68L213.687 554.083L218.838 553.502L226.01 617.099L220.859 617.68Z" fill="#E34A43"/>
<path d="M226.645 678.198L215.633 615.152L220.739 614.26L231.751 677.306L226.645 678.198Z" fill="#E34A43"/>
<path d="M231.645 678.198L220.633 615.152L225.739 614.26L236.751 677.306L231.645 678.198Z" fill="#E34A43"/>
<path d="M224.219 739.879L226.58 675.923L231.76 676.114L229.4 740.07L224.219 739.879Z" fill="#E34A43"/>
<path d="M229.219 739.879L231.58 675.923L236.76 676.114L234.4 740.07L229.219 739.879Z" fill="#E34A43"/>
</g>
<g clip-path="url(#clip1_16_1260)">
<path d="M132.928 396.416C127.354 398.019 122.34 398.641 117.886 398.283C113.431 397.924 109.455 396.757 105.957 394.783C102.492 392.782 99.4569 390.119 96.8518 386.794C94.2731 383.502 92.44 379.952 91.3525 376.142C90.2723 372.273 90.1043 368.15 90.8485 363.773C91.5663 359.362 93.3833 354.659 96.2995 349.664L99.2993 353.493C98.6708 355.666 98.4221 357.839 98.5533 360.013C98.7181 362.16 99.1728 364.297 99.9176 366.424C100.662 368.55 101.654 370.646 102.892 372.711C104.131 374.776 105.526 376.8 107.079 378.781C108.658 380.796 110.315 382.669 112.05 384.399C113.758 386.096 115.569 387.577 117.482 388.843C119.369 390.075 121.348 391.044 123.42 391.752C125.499 392.399 127.655 392.661 129.889 392.537L132.928 396.416Z" fill="#E34A43"/>
<path d="M94.9909 350.816L143.591 309.175L146.964 313.112L98.3638 354.753L94.9909 350.816Z" fill="#E34A43"/>
<path d="M95.622 353.915L144.222 312.274L147.595 316.21L98.9949 357.852L95.622 353.915Z" fill="#E34A43"/>
<path d="M141.234 311.23L189.639 269.362L193.03 273.282L144.625 315.151L141.234 311.23Z" fill="#E34A43"/>
<path d="M142.871 313.524L191.276 271.656L194.667 275.577L146.262 317.445L142.871 313.524Z" fill="#E34A43"/>
<path d="M128.72 393.034L179.907 354.616L183.019 358.762L131.832 397.18L128.72 393.034Z" fill="#E34A43"/>
<path d="M124.633 392.653L175.819 354.235L178.931 358.381L127.744 396.799L124.633 392.653Z" fill="#E34A43"/>
<path d="M177.331 356.483L228.717 318.332L231.807 322.494L180.421 360.646L177.331 356.483Z" fill="#E34A43"/>
<path d="M175.586 354.257L226.972 316.106L230.062 320.268L178.677 358.419L175.586 354.257Z" fill="#E34A43"/>
<path d="M322.177 418.383C321.406 424.073 319.957 428.847 317.83 432.704C315.702 436.561 313.022 439.647 309.79 441.964C306.547 444.239 302.867 445.848 298.749 446.792C294.674 447.726 290.66 447.881 286.709 447.255C282.705 446.598 278.835 445.013 275.098 442.501C271.321 439.998 267.717 436.383 264.287 431.656L269.028 430.569C270.778 432.049 272.682 433.188 274.739 433.985C276.786 434.741 278.94 435.232 281.202 435.457C283.463 435.682 285.796 435.673 288.2 435.428C290.604 435.183 293.033 434.779 295.486 434.216C297.982 433.644 300.377 432.942 302.672 432.109C304.926 431.286 307.023 430.281 308.962 429.092C310.859 427.913 312.551 426.541 314.04 424.974C315.476 423.376 316.587 421.546 317.374 419.484L322.177 418.383Z" fill="#E34A43"/>
<path d="M264.677 432.724L245.907 371.538L250.904 370.159L269.674 431.345L264.677 432.724Z" fill="#E34A43"/>
<path d="M267.804 433.464L249.034 372.278L254.031 370.899L272.801 432.085L267.804 433.464Z" fill="#E34A43"/>
<path d="M246.739 374.161L227.683 313.064L232.674 311.661L251.73 372.759L246.739 374.161Z" fill="#E34A43"/>
<path d="M249.528 373.652L230.473 312.554L235.463 311.152L254.519 372.249L249.528 373.652Z" fill="#E34A43"/>
<path d="M317.503 420.235L302.716 357.966L307.792 356.913L322.578 419.181L317.503 420.235Z" fill="#E34A43"/>
<path d="M315.493 423.769L300.707 361.5L305.783 360.447L320.569 422.715L315.493 423.769Z" fill="#E34A43"/>
<path d="M303.343 360.838L288.881 298.493L293.962 297.466L308.424 359.811L303.343 360.838Z" fill="#E34A43"/>
<path d="M300.573 361.473L286.111 299.128L291.192 298.101L305.654 360.446L300.573 361.473Z" fill="#E34A43"/>
<path d="M429.228 271.855C433.782 275.352 437.204 278.982 439.494 282.745C441.783 286.508 443.13 290.367 443.534 294.324C443.896 298.268 443.464 302.262 442.237 306.304C441.022 310.305 439.161 313.864 436.655 316.982C434.095 320.13 430.796 322.701 426.759 324.694C422.709 326.729 417.781 328.059 411.975 328.686L413.388 324.032C415.542 323.249 417.476 322.163 419.191 320.774C420.864 319.373 422.36 317.748 423.68 315.897C424.999 314.047 426.15 312.018 427.132 309.81C428.114 307.602 428.971 305.294 429.702 302.885C430.446 300.436 431.027 298.008 431.445 295.602C431.851 293.237 432.02 290.918 431.953 288.645C431.873 286.413 431.523 284.262 430.903 282.192C430.23 280.152 429.194 278.278 427.796 276.571L429.228 271.855Z" fill="#E34A43"/>
<path d="M413.095 328.878L350.672 314.758L351.959 309.736L414.382 323.857L413.095 328.878Z" fill="#E34A43"/>
<path d="M415.292 326.533L352.869 312.413L354.155 307.391L416.578 321.511L415.292 326.533Z" fill="#E34A43"/>
<path d="M353.362 315.339L290.874 301.511L292.137 296.483L354.625 310.312L353.362 315.339Z" fill="#E34A43"/>
<path d="M354.306 312.666L291.818 298.837L293.081 293.81L355.569 307.638L354.306 312.666Z" fill="#E34A43"/>
<path d="M428.511 276.832L367.128 258.716L368.737 253.788L430.119 271.904L428.511 276.832Z" fill="#E34A43"/>
<path d="M430.579 280.332L369.197 262.216L370.805 257.288L432.187 275.404L430.579 280.332Z" fill="#E34A43"/>
<path d="M369.932 259.599L308.644 241.165L310.278 236.245L371.566 254.68L369.932 259.599Z" fill="#E34A43"/>
<path d="M369.106 262.319L307.819 243.884L309.453 238.964L370.74 257.399L369.106 262.319Z" fill="#E34A43"/>
<path d="M402.476 132.432C408.218 132.43 413.143 133.223 417.252 134.811C421.36 136.4 424.78 138.64 427.51 141.531C430.201 144.438 432.292 147.868 433.782 151.82C435.257 155.733 435.95 159.689 435.863 163.689C435.751 167.745 434.702 171.793 432.715 175.834C430.744 179.914 427.647 183.972 423.425 188.007L421.71 183.456C422.941 181.522 423.813 179.482 424.326 177.336C424.799 175.206 424.995 173.006 424.914 170.735C424.832 168.463 424.508 166.153 423.942 163.804C423.375 161.455 422.648 159.103 421.76 156.747C420.857 154.352 419.839 152.073 418.705 149.91C417.585 147.788 416.307 145.846 414.868 144.085C413.444 142.364 411.856 140.872 410.104 139.608C408.327 138.4 406.364 137.546 404.214 137.044L402.476 132.432Z" fill="#E34A43"/>
<path d="M424.431 187.477L366.331 214.317L364.291 209.551L422.391 182.711L424.431 187.477Z" fill="#E34A43"/>
<path d="M424.743 184.279L366.643 211.119L364.604 206.353L422.704 179.513L424.743 184.279Z" fill="#E34A43"/>
<path d="M368.818 213.139L310.844 240.251L308.782 235.494L366.756 208.383L368.818 213.139Z" fill="#E34A43"/>
<path d="M367.938 210.444L309.964 237.555L307.902 232.799L365.876 205.688L367.938 210.444Z" fill="#E34A43"/>
<path d="M404.941 136.815L345.231 159.854L343.503 154.966L403.213 131.927L404.941 136.815Z" fill="#E34A43"/>
<path d="M408.713 138.33L349.004 161.369L347.276 156.481L406.985 133.442L408.713 138.33Z" fill="#E34A43"/>
<path d="M347.992 158.846L288.164 181.573L286.461 176.677L346.29 153.949L347.992 158.846Z" fill="#E34A43"/>
<path d="M348.995 161.505L289.166 184.233L287.464 179.336L347.292 156.608L348.995 161.505Z" fill="#E34A43"/>
<path d="M253.977 39.2225C257.072 34.386 260.396 30.6665 263.95 28.0639C267.504 25.4613 271.234 23.79 275.141 23.0501C279.041 22.3521 283.057 22.4418 287.188 23.3192C291.279 24.1877 294.984 25.7375 298.305 27.9687C301.66 30.2507 304.503 33.3178 306.834 37.17C309.207 41.0311 310.953 45.8274 312.074 51.5589L307.316 50.5486C306.352 48.4691 305.104 46.6346 303.574 45.0452C302.036 43.4978 300.288 42.1458 298.332 40.9891C296.376 39.8325 294.256 38.8591 291.972 38.069C289.689 37.2789 287.316 36.6224 284.853 36.0996C282.349 35.5678 279.881 35.1963 277.448 34.9849C275.057 34.7824 272.732 34.8119 270.473 35.0735C268.256 35.3439 266.143 35.8761 264.133 36.6703C262.158 37.5152 260.379 38.7072 258.797 40.2461L253.977 39.2225Z" fill="#E34A43"/>
<path d="M312.17 50.4263L303.432 113.827L298.318 112.974L307.056 49.5731L312.17 50.4263Z" fill="#E34A43"/>
<path d="M309.645 48.4382L300.907 111.839L295.794 110.986L304.532 47.5849L309.645 48.4382Z" fill="#E34A43"/>
<path d="M303.781 111.097L295.34 174.538L290.222 173.709L298.664 110.268L303.781 111.097Z" fill="#E34A43"/>
<path d="M301.037 110.385L292.595 173.826L287.478 172.996L295.92 109.556L301.037 110.385Z" fill="#E34A43"/>
<path d="M258.997 39.5113L246.189 102.217L241.142 101.035L253.949 38.3297L258.997 39.5113Z" fill="#E34A43"/>
<path d="M262.307 37.1519L249.5 99.8574L244.452 98.6758L257.26 35.9704L262.307 37.1519Z" fill="#E34A43"/>
<path d="M246.83 99.3481L233.696 161.986L228.655 160.778L241.788 98.1404L246.83 99.3481Z" fill="#E34A43"/>
<path d="M249.61 99.9385L236.477 162.576L231.435 161.369L244.569 98.7307L249.61 99.9385Z" fill="#E34A43"/>
<path d="M93.5387 144.666C90.3159 139.914 88.21 135.392 87.2209 131.099C86.2319 126.807 86.1683 122.72 87.0301 118.838C87.9275 114.979 89.5945 111.325 92.0311 107.874C94.4431 104.459 97.3294 101.666 100.69 99.4947C104.111 97.3125 108.051 95.9105 112.51 95.2888C116.994 94.6322 122.09 94.92 127.799 96.1521L124.993 100.125C122.702 100.19 120.524 100.613 118.46 101.392C116.431 102.195 114.499 103.267 112.664 104.608C110.83 105.949 109.099 107.513 107.472 109.299C105.845 111.086 104.305 113.007 102.853 115.063C101.376 117.155 100.061 119.276 98.9066 121.428C97.7771 123.545 96.8868 125.693 96.2357 127.872C95.6093 130.016 95.2645 132.167 95.2012 134.327C95.1982 136.476 95.5915 138.58 96.3814 140.641L93.5387 144.666Z" fill="#E34A43"/>
<path d="M126.796 95.617L181.604 128.664L178.802 133.025L123.994 99.9787L126.796 95.617Z" fill="#E34A43"/>
<path d="M123.973 97.1521L178.781 130.199L175.98 134.56L121.172 101.514L123.973 97.1521Z" fill="#E34A43"/>
<path d="M179.234 127.265L234.196 160.056L231.415 164.43L176.453 131.64L179.234 127.265Z" fill="#E34A43"/>
<path d="M177.497 129.506L232.458 162.296L229.677 166.671L174.715 133.88L177.497 129.506Z" fill="#E34A43"/>
<path d="M95.7849 140.168L148.348 176.68L145.271 180.851L92.7075 144.34L95.7849 140.168Z" fill="#E34A43"/>
<path d="M94.9234 136.195L147.487 172.707L144.409 176.878L91.8459 140.367L94.9234 136.195Z" fill="#E34A43"/>
<path d="M145.965 174.959L198.338 211.744L195.239 215.899L142.866 179.115L145.965 174.959Z" fill="#E34A43"/>
<path d="M147.604 172.638L199.977 209.422L196.878 213.578L144.505 176.793L147.604 172.638Z" fill="#E34A43"/>
<path d="M70.2191 270.84C64.9031 268.669 60.6442 266.072 57.4423 263.047C54.2404 260.022 51.9227 256.654 50.489 252.945C49.0979 249.236 48.4606 245.27 48.577 241.048C48.6922 236.868 49.547 232.944 51.1415 229.274C52.7798 225.562 55.2827 222.212 58.6504 219.223C62.0192 216.192 66.421 213.608 71.8558 211.47L71.7217 216.332C69.8506 217.656 68.2717 219.214 66.985 221.007C65.7409 222.799 64.7269 224.762 63.9427 226.895C63.1586 229.028 62.5843 231.289 62.2198 233.678C61.8553 236.067 61.6383 238.519 61.569 241.036C61.4984 243.595 61.579 246.09 61.8106 248.52C62.0435 250.909 62.4926 253.19 63.1579 255.364C63.8245 257.496 64.7298 259.479 65.8739 261.311C67.0619 263.102 68.5555 264.636 70.3549 265.913L70.2191 270.84Z" fill="#E34A43"/>
<path d="M70.7244 211.58L134.66 208.719L134.745 213.903L70.8091 216.764L70.7244 211.58Z" fill="#E34A43"/>
<path d="M69.2252 214.423L133.161 211.561L133.246 216.745L69.3098 219.606L69.2252 214.423Z" fill="#E34A43"/>
<path d="M131.913 208.869L195.835 205.709L195.944 210.892L132.022 214.051L131.913 208.869Z" fill="#E34A43"/>
<path d="M131.708 211.696L195.63 208.537L195.739 213.72L131.817 216.879L131.708 211.696Z" fill="#E34A43"/>
<path d="M69.5964 265.85L133.584 267.117L133.334 272.295L69.3462 271.028L69.5964 265.85Z" fill="#E34A43"/>
<path d="M66.6777 263.021L130.665 264.288L130.415 269.465L66.4275 268.198L66.6777 263.021Z" fill="#E34A43"/>
<path d="M130.647 267.006L194.627 268.606L194.35 273.782L130.37 272.182L130.647 267.006Z" fill="#E34A43"/>
<path d="M130.725 264.165L194.705 265.765L194.428 270.941L130.448 269.341L130.725 264.165Z" fill="#E34A43"/>
<path d="M249.974 317.16C236.006 317.16 224.342 313.992 214.982 307.656C205.622 301.32 198.638 292.248 194.03 280.44C189.422 268.488 187.118 254.16 187.118 237.456C187.118 220.752 189.422 206.568 194.03 194.904C198.782 183.096 205.838 174.096 215.198 167.904C224.702 161.568 236.366 158.4 250.19 158.4C264.878 158.4 276.758 161.568 285.83 167.904C295.046 174.24 301.814 183.312 306.134 195.12C310.454 206.928 312.614 221.112 312.614 237.672C312.614 253.656 310.382 267.624 305.918 279.576C301.598 291.528 294.83 300.816 285.614 307.44C276.398 313.92 264.518 317.16 249.974 317.16ZM249.974 310.464C262.646 310.464 272.798 307.584 280.43 301.824C288.206 295.92 293.894 287.568 297.494 276.768C301.094 265.824 302.894 252.792 302.894 237.672C302.894 222.408 301.166 209.376 297.71 198.576C294.254 187.776 288.638 179.496 280.862 173.736C273.23 167.976 263.006 165.096 250.19 165.096C232.19 165.096 218.798 171.504 210.014 184.32C201.23 197.136 196.838 214.92 196.838 237.672C196.838 252.936 198.782 265.968 202.67 276.768C206.558 287.568 212.39 295.92 220.166 301.824C228.086 307.584 238.022 310.464 249.974 310.464Z" fill="#E34A43"/>
</g>
<defs>
<clipPath id="clip0_16_1260">
<rect width="144" height="563" fill="white" transform="translate(167 303)"/>
</clipPath>
<clipPath id="clip1_16_1260">
<rect width="483" height="448" fill="white"/>
</clipPath>
</defs>
</svg>
